<svg xmlns="http://www.w3.org/2000/svg" width="70.065" height="105.208" viewBox="0 0 70.065 105.208">
  <path id="Path_994" data-name="Path 994" d="M5,3V108.208H35.028V87.751H45.037v20.457H75.065V3H5M15.009,14.69H25.019v11.69H15.009V14.69m20.019,0H45.037v11.69H35.028V14.69m20.019,0H65.056v11.69H55.047V14.69M15.009,38.069H25.019v11.69H15.009V38.069m20.019,0H45.037v11.69H35.028V38.069m20.019,0H65.056v11.69H55.047V38.069M15.009,61.449H25.019v11.69H15.009V61.449m20.019,0H45.037v11.69H35.028V61.449m20.019,0H65.056v11.69H55.047V61.449M15.009,84.828H25.019v11.69H15.009V84.828m40.037,0H65.056v11.69H55.047Z" transform="translate(-5 -3)" fill="#fff"/>
</svg>
