<svg id="google" xmlns="http://www.w3.org/2000/svg" width="23.807" height="24.293" viewBox="0 0 23.807 24.293">
  <path id="Path_989" data-name="Path 989" d="M142.211,109.244a10.41,10.41,0,0,0-.256-2.483h-11.4v4.508h6.694a5.936,5.936,0,0,1-2.483,3.941l-.023.151,3.606,2.793.25.025a11.876,11.876,0,0,0,3.617-8.934" transform="translate(-118.403 -96.828)" fill="#4285f4"/>
  <path id="Path_990" data-name="Path 990" d="M24.776,166.114a11.577,11.577,0,0,0,8.044-2.942L28.987,160.2a7.189,7.189,0,0,1-4.211,1.215,7.312,7.312,0,0,1-6.91-5.048l-.142.012-3.749,2.9-.049.136a12.138,12.138,0,0,0,10.851,6.694" transform="translate(-12.629 -141.821)" fill="#34a853"/>
  <path id="Path_991" data-name="Path 991" d="M5.236,79.226a7.478,7.478,0,0,1-.4-2.4,7.858,7.858,0,0,1,.391-2.4l-.007-.161-3.8-2.948-.124.059a12.121,12.121,0,0,0,0,10.9l3.941-3.05" transform="translate(0 -64.677)" fill="#fbbc05"/>
  <path id="Path_992" data-name="Path 992" d="M24.776,4.7a6.732,6.732,0,0,1,4.7,1.809L32.9,3.158A11.67,11.67,0,0,0,24.776,0,12.138,12.138,0,0,0,13.925,6.694l3.927,3.05A7.342,7.342,0,0,1,24.776,4.7" transform="translate(-12.629)" fill="#eb4335"/>
</svg>
