<?xml version="1.0" encoding="UTF-8" standalone="no"?>
<!-- Created with Inkscape (http://www.inkscape.org/) -->

<svg
   width="36.630936mm"
   height="9.8371258mm"
   viewBox="0 0 36.630936 9.8371258"
   version="1.1"
   id="svg1"
   xml:space="preserve"
   xmlns:inkscape="http://www.inkscape.org/namespaces/inkscape"
   xmlns:sodipodi="http://sodipodi.sourceforge.net/DTD/sodipodi-0.dtd"
   xmlns="http://www.w3.org/2000/svg"
   xmlns:svg="http://www.w3.org/2000/svg"><sodipodi:namedview
     id="namedview1"
     pagecolor="#ffffff"
     bordercolor="#111111"
     borderopacity="1"
     inkscape:showpageshadow="0"
     inkscape:pageopacity="0"
     inkscape:pagecheckerboard="1"
     inkscape:deskcolor="#d1d1d1"
     inkscape:document-units="mm" /><defs
     id="defs1" /><g
     inkscape:label="Layer 1"
     inkscape:groupmode="layer"
     id="layer1"
     transform="translate(-92.557238,-144.59773)"><g
       id="g1"><g
         id="Group_167"
         data-name="Group 167"
         transform="matrix(0.26458333,0,0,0.26458333,73.52444,140.09982)"
         inkscape:label="HotelApp-black"><path
           d="m -34.851749,-0.2578125 q 0.02344,0.0234375 0.03516,0.0703125 0.01172,0.0351563 0.01172,0.0585938 Q -34.804874,0 -35.015812,0 q -0.117187,0.01171875 -0.703125,-0.0234375 -0.574219,-0.046875 -0.796875,-0.046875 -0.375,0 -1.125,0.05859375 Q -37.922062,0.01171875 -38.039249,0 q -0.199219,0 -0.199219,-0.140625 0,-0.0585938 0.03516,-0.09375 0.03516,-0.046875 0.503906,-0.41015625 0.363282,-0.28125 0.363282,-0.50390625 V -11.367188 q -0.65625,0.28125 -1.511719,0.410157 -0.84375,0.128906 -1.675781,0.128906 -0.9375,0 -2.179688,-0.269531 -1.242187,-0.269532 -2.179687,-0.691407 v 10.6406255 q 0,0.22265625 0.351562,0.4921875 0.46875,0.36328125 0.492188,0.3984375 0.02344,0.0234375 0.03516,0.0703125 0.01172,0.0351563 0.01172,0.0585938 Q -43.992374,0 -44.203312,0 q -0.117187,0.01171875 -0.703125,-0.0234375 -0.574219,-0.046875 -0.796875,-0.046875 -0.375,0 -1.125,0.05859375 Q -47.109562,0.01171875 -47.226749,0 q -0.199219,0 -0.199219,-0.140625 0,-0.0585938 0.03516,-0.09375 0.03516,-0.046875 0.503906,-0.41015625 0.363282,-0.28125 0.363282,-0.50390625 V -11.882813 q -0.164063,-0.02344 -0.28125,-0.02344 -0.773438,0 -1.40625,0.363281 -0.75,0.433594 -0.75,1.136719 0,0.339844 0.152343,0.5507812 0.09375,0.1289063 0.292969,0.2460938 0.199219,0.1171875 0.539063,0.1171875 0.152343,0 0.210937,-0.023437 0.140625,-0.035156 0.140625,0.082031 0,0.070312 -0.09375,0.1523438 -0.199219,0.1757812 -0.433594,0.28125 -0.351562,0.1640625 -0.714843,0.1640625 -0.585938,0 -0.996094,-0.3164063 -0.503906,-0.3867187 -0.503906,-1.0898445 0,-0.785156 0.421875,-1.347656 0.363281,-0.46875 1.054687,-0.832031 0.363281,-0.199219 0.890625,-0.316406 0.65625,-0.152344 1.476563,-0.152344 v -2.367188 q 0,-0.222656 -0.351563,-0.503906 -0.257812,-0.199219 -0.515625,-0.410156 -0.03516,-0.04687 -0.02344,-0.140625 0.02344,-0.09375 0.1875,-0.09375 0.117187,-0.01172 0.703125,0.03516 0.585937,0.03516 0.820312,0.03516 0.46875,0 0.949219,-0.03516 0.492187,-0.03516 0.550781,-0.03516 0.210938,0 0.210938,0.128906 0,0.07031 -0.04687,0.128907 -0.02344,0.03516 -0.480469,0.386718 -0.363281,0.28125 -0.363281,0.503906 V -12.75 q 0.925781,0.433594 2.25,0.785156 1.324218,0.339844 2.367187,0.339844 0.832031,0 1.289063,-0.08203 0.714843,-0.128907 1.640625,-0.550782 v -3 q 0,-0.222656 -0.351563,-0.503906 -0.257812,-0.199219 -0.515625,-0.410156 -0.03516,-0.04687 -0.02344,-0.140625 0.02344,-0.09375 0.1875,-0.09375 0.117187,-0.01172 0.703125,0.03516 0.585937,0.03516 0.820312,0.03516 0.46875,0 0.949219,-0.03516 0.492187,-0.03516 0.550781,-0.03516 0.210938,0 0.210938,0.128906 0,0.07031 -0.04687,0.128907 -0.02344,0.03516 -0.480469,0.386718 -0.363281,0.28125 -0.363281,0.503906 v 14.1093755 q 0,0.22265625 0.351562,0.4921875 0.46875,0.36328125 0.492188,0.3984375 z M -20.554874,-5.53125 q 0,2.4609375 -1.804688,4.2070313 Q -24.117374,0.375 -26.507999,0.375 q -2.519532,0 -4.253907,-1.7460937 -1.722656,-1.7578126 -1.722656,-4.2773438 0,-2.4492188 1.757813,-4.1835938 1.769531,-1.7460937 4.242187,-1.7460937 2.484375,0 4.207031,1.7695312 1.722657,1.7695313 1.722657,4.2773438 z m -1.007813,0.515625 q 0,-1.9335937 -1.78125,-3.6796875 Q -25.183781,-10.5 -27.375187,-10.5 q -1.710937,0 -2.90625,1.171875 -1.195312,1.171875 -1.195312,2.765625 0,2.3085938 1.816406,4.1015625 1.78125,1.7578125 3.925781,1.7578125 1.699219,0 2.882813,-1.1015625 1.289062,-1.2070313 1.289062,-3.2109375 z m 7.664063,-5.625 q 0,0.1875 -0.164063,0.1875 -0.05859,0 -0.574219,-0.02344 Q -15.152531,-10.5 -15.609562,-10.5 v 7.7578125 q 0,0.8320313 0.46875,1.4179688 0.128906,0.1640625 0.679688,0.6210937 0.09375,0.0703125 0.09375,0.1640625 0,0.0585938 -0.09375,0.12890625 -0.09375,0.0585938 -0.210938,0.12890625 -0.152344,0.1171875 -0.234375,0.1875 -0.328125,0.29296875 -0.421875,0.421875 -0.09375,0.09375 -0.1875,0.09375 -0.08203,0 -0.164062,-0.046875 -0.503907,-0.28125 -0.890625,-0.9609375 -0.539063,-0.9492187 -0.539063,-2.2734375 V -10.5 q -0.375,0 -0.714844,0.02344 -0.339843,0.01172 -0.691406,0.02344 -0.164062,0 -0.164062,-0.1875 v -0.375 q 0,-0.1875 0.210937,-0.1875 0.05859,0 0.515625,0.02344 0.457031,0.02344 0.84375,0.02344 v -0.890625 q 0,-0.679688 -0.292969,-0.761719 -0.199218,-0.02344 -0.269531,-0.03516 -0.164062,0 -0.164062,-0.164063 0,-0.07031 0.07031,-0.140625 0.257813,-0.222656 0.527344,-0.46875 0.269531,-0.257812 0.597656,-0.585937 0.375,-0.386719 0.574219,-0.644531 0.210937,-0.257813 0.410156,-0.503907 0.03516,-0.05859 0.09375,-0.05859 0.09375,0 0.09375,0.175781 -0.03516,0.304687 -0.07031,0.609375 -0.07031,0.738281 -0.07031,1.523437 v 1.945313 q 0.386719,0 0.761719,-0.01172 0.375,-0.01172 0.785156,-0.03516 0.164063,0 0.164063,0.164062 z m 12.8437496,8.15625 q -0.3046875,0.9960938 -1.4648438,1.86328125 -1.359375,1.01953125 -2.9648437,1.01953125 -1.03125,0 -1.828125,-0.22265625 -0.9140625,-0.2578125 -1.734375,-0.87890625 -0.328125,0.41015625 -0.5976563,0.890625 -0.3398437,0.59765625 -0.3398437,0.8671875 0,0.328125 0.1757812,0.4570312 0.1171875,0.082031 0.3867188,0.082031 0.082031,0 0.1640625,-0.023437 0.070312,-0.023437 0.140625,-0.046875 0.046875,-0.023437 0.082031,0 0.082031,0.046875 0.035156,0.1875 -0.070312,0.28125 -0.28125,0.515625 -0.28125,0.3046875 -0.65625,0.3046875 -0.3984376,0 -0.6562496,-0.2929687 -0.257812,-0.2929688 -0.257812,-0.7617188 0,-0.375 0.257812,-0.9140625 0.07031,-0.15234375 1.0078121,-1.6640625 -0.8671871,-0.890625 -1.3359371,-1.9335938 -0.515625,-1.1601562 -0.515625,-2.4960937 0,-2.4609375 1.5937496,-4.2539063 1.6054687,-1.7929689 3.984375,-1.7929689 0.9492187,0 1.9453125,0.457031 0.5507812,0.269531 1.1015625,0.527344 0.1054687,0.04687 0.3046875,0.07031 0.1992187,0.02344 0.3984375,0.02344 l 0.3515625,-0.02344 q 0.1289062,0 0.1289062,0.105469 0,0.08203 -0.082031,0.128906 -0.1875,0.117188 -0.4101563,0.3164069 -0.3046875,0.2578125 -0.5273437,0.5273438 -1.1367188,1.265625 -2.6367188,3.3164063 -1.5,2.0507812 -2.8242187,4.1132812 0.6914062,0.4921875 1.40625,0.7617188 0.84375,0.3164062 1.7578125,0.3164062 1.265625,0 2.0859375,-0.4804687 0.5976562,-0.3515625 1.3359375,-1.2539063 0.070312,-0.1054688 0.1640625,-0.2226563 0.09375,-0.1289062 0.2109375,-0.1054687 0.15234373,0.035156 0.15234373,0.2226562 0,0.140625 -0.0585937,0.2929688 z m -3.2109375,-6.9140625 q 0,-0.6914065 -0.75,-1.0781255 -0.6328125,-0.328125 -1.5234375,-0.328125 -1.6640625,0 -2.7421875,1.4179692 -1.0078121,1.3359375 -1.0078121,3.1757813 0,1.0898438 0.5273433,2.1796875 0.4453125,0.9257812 1.1132813,1.5703125 0.796875,-1.1835938 1.2421875,-1.8398437 0.7148437,-1.0546875 1.21875,-1.7695313 0.6445312,-0.9140625 1.2890625,-1.828125 0.6328125,-0.984375 0.6328125,-1.5 z M 3.7732506,-0.375 q 0.140625,0.140625 0.140625,0.234375 Q 3.9138756,0 3.6560631,0 3.4451256,0 3.3045006,-0.01171875 2.5779381,-0.0703125 2.3435631,-0.0703125 q -0.421875,0 -0.6914063,0.0234375 Q 1.3943443,-0.0234375 1.0545006,0 0.77325058,0 0.77325058,-0.140625 q 0,-0.0703125 0.1171875,-0.2109375 0.29296872,-0.234375 0.43359372,-0.36328125 0.2695313,-0.234375 0.2695313,-0.43359375 V -13.6875 q 0,-0.339844 -0.023437,-0.539063 -0.023437,-0.199218 -0.28125,-0.164062 -0.1289063,0.02344 -0.43359377,0.234375 -0.3046875,0.199219 -0.41015625,0.234375 -0.17578125,0.05859 -0.17578125,-0.128906 0,-0.05859 0.0703125,-0.164063 0.0703125,-0.105469 0.64453125,-0.65625 0.45703122,-0.445312 0.72656252,-0.714844 0.3984375,-0.398437 0.8671875,-0.949218 0.328125,-0.386719 0.421875,-0.457031 0.023437,-0.02344 0.070312,-0.03516 0.035156,-0.01172 0.058594,-0.01172 0.1054688,0 0.1054688,0.1875 -0.058594,0.375 -0.1054688,0.937499 -0.035156,0.550782 -0.035156,1.171875 v 13.5937505 q 0,0.1875 0.2460937,0.41015625 0.2109375,0.1875 0.4335938,0.36328125 z m 18.3750004,0.1171875 q 0.02344,0.0234375 0.03516,0.0703125 0.01172,0.0351563 0.01172,0.0585938 Q 22.195126,0 21.984188,0 q -0.117187,0.01171875 -0.703125,-0.0234375 -0.574219,-0.046875 -0.796875,-0.046875 -0.375,0 -1.125,0.05859375 Q 19.077938,0.01171875 18.960751,0 q -0.199219,0 -0.199219,-0.140625 0,-0.0585938 0.03516,-0.09375 0.03516,-0.046875 0.503906,-0.41015625 0.363282,-0.28125 0.363282,-0.50390625 0.02344,-0.1289062 0.04687,-0.3632812 0.03516,-0.2460938 0.03516,-0.5625001 0,-1.2890625 -0.398438,-2.5312499 -0.574218,-1.78125 -1.933593,-3.3164063 -0.820313,-0.9140625 -1.875,-1.5585938 -1.042969,-0.6562502 -2.34375,-1.0898442 -0.667969,1.1835942 -1.136719,2.5898443 -0.621094,1.875 -0.621094,3.5039062 0,1.78125 0.08203,2.5546875 0.140625,1.34765625 0.621094,2.4140625 0.304688,0.6445312 0.914063,1.125 0.328125,0.2578125 0.84375,0.515625 0.140625,0.070312 0.140625,0.1640625 0,0.082031 -0.117188,0.1171875 -0.339844,0.1054688 -0.65625,0.2226563 -0.304687,0.1171875 -0.714844,0.3164062 -0.398437,0.1992188 -0.691406,0.4101563 -0.199219,0.140625 -0.375,0.2929687 -0.09375,0.070312 -0.152344,0.070312 -0.105468,0 -0.105468,-0.1875 0,-0.3632812 -0.03516,-0.8320312 -0.03516,-0.46875 -0.175781,-1.4882813 -0.210937,-1.20703125 -0.386719,-2.390625 -0.175781,-1.1835938 -0.175781,-2.2265625 0,-2.1445312 0.550781,-4.2304687 0.480469,-1.8281251 1.253907,-3.1757823 -0.257813,-0.04687 -0.550782,-0.08203 -0.28125,-0.03516 -0.65625,-0.03516 -0.667968,0 -1.3945309,0.164062 -0.7148438,0.152344 -1.2539063,0.515625 -0.7148437,0.4804697 -0.7148437,1.125001 0,0.6679687 0.5390625,0.7734375 0.046875,0.011719 0.140625,0.011719 0.2460937,0 0.421875,-0.1171875 0.1875,-0.1171875 0.2109375,-0.3515625 0.035156,-0.234375 0.1289062,-0.234375 0.070312,0 0.1054688,0.1289063 0.046875,0.1289062 0.046875,0.328125 0,0.1054687 -0.023437,0.234375 -0.023437,0.1171875 -0.046875,0.234375 -0.1523438,0.4335938 -0.515625,0.7265625 -0.3632813,0.28125 -0.9023438,0.28125 -0.070312,0.011719 -0.1289062,0.011719 -0.6210938,0 -1.0546875,-0.4570313 -0.421875,-0.46875 -0.421875,-1.1953125 0,-1.2070313 1.3125,-2.0039065 0.8671875,-0.527344 1.9453125,-0.738281 0.375,-0.07031 0.8320319,-0.105469 0.457031,-0.03516 0.9375,-0.03516 0.949219,0 1.488281,0.117187 1.699219,-2.25 3.761719,-3.480468 2.378906,-1.417969 5.167969,-1.417969 0.386718,0 0.386718,0.105469 0,0.04687 -0.08203,0.128906 -0.386719,0.433594 -0.492187,0.785156 -0.140625,0.492188 -0.140625,1.792969 v 12.4453125 q 0,0.22265625 0.351562,0.4921875 0.46875,0.36328125 0.492188,0.3984375 z m -2.484375,-5.90625 v -9.2578125 q -1.6875,0.316406 -3.351563,1.476562 -0.914062,0.632813 -1.476562,1.207032 -0.5625,0.574218 -1.195313,1.511718 1.007813,0.339844 1.839844,0.796875 0.738281,0.410157 1.511719,1.0312505 0.855468,0.6796875 1.476562,1.4414063 0.574219,0.703125 1.195313,1.7929687 z m 16.289062,-0.703125 q 0,3.1054687 -1.722656,5.2148438 Q 32.566219,0.375 30.327938,0.375 q -0.808594,0 -1.464844,-0.3046875 -0.527343,-0.24609375 -1.230468,-0.8671875 v 2.5078125 q 0,0.65625 0.257812,1.078125 0.128906,0.1992188 0.445313,0.4921875 0.105468,0.09375 0.105468,0.1640625 0,0.082031 -0.175781,0.1523438 -0.164062,0.070312 -0.375,0.1523437 -0.363281,0.1640625 -0.84375,0.46875 -0.328125,0.1992187 -0.621094,0.4335937 -0.28125,0.234375 -0.574218,0.4804688 -0.09375,0.046875 -0.164063,0.046875 -0.117187,0 -0.09375,-0.234375 0.234375,-0.6210938 0.386719,-1.2539062 0.152344,-0.6210938 0.152344,-1.2773438 v -10.5 q 0,-1.0078125 -0.621094,-1.640625 -0.257813,-0.2695313 -0.902344,-0.6093755 -0.07031,-0.03516 -0.07031,-0.09375 0,-0.03516 0.02344,-0.08203 0.02344,-0.04687 0.04687,-0.08203 0.05859,-0.07031 0.199219,-0.1875 0.199219,-0.164063 0.316406,-0.28125 0.175781,-0.175781 0.269531,-0.28125 0.09375,-0.105469 0.175782,-0.210938 0.03516,-0.05859 0.128906,-0.05859 0.07031,0 0.105469,0.03516 0.480468,0.363281 0.9375,0.9375 0.679687,0.8554687 0.796875,1.6640625 0.457031,-0.9023438 1.253906,-1.5937505 1.171875,-1.007812 2.613281,-1.007812 1.453125,0 2.566406,0.855469 0.925782,0.714843 1.488282,1.910156 0.492187,1.0546875 0.492187,1.9453125 z m -1.570312,0.84375 q 0,-1.6875 -0.9375,-2.9648438 -0.984375,-1.3476567 -2.4375,-1.3476567 -1.207032,0 -2.121094,0.7617192 -0.75,0.6210938 -1.253906,1.6992188 v 6.8203125 L 28.101376,-1.5 q 0.199218,-0.1875 0.316406,-0.328125 0.128906,-0.140625 0.292969,-0.3984375 0.05859,-0.070312 0.117187,-0.070312 0.152344,0 0.09375,0.1875 -0.01172,0.023437 -0.04687,0.234375 -0.03516,0.1992188 -0.03516,0.328125 0,0.28125 0.105469,0.515625 0.152343,0.3046875 0.585937,0.515625 0.445313,0.2109375 0.914063,0.2109375 1.78125,0 2.859375,-1.5820312 1.078125,-1.5820313 1.078125,-4.1367188 z m 15,-0.84375 q 0,3.1054687 -1.722657,5.2148438 Q 45.995907,0.375 43.757626,0.375 q -0.808594,0 -1.464844,-0.3046875 -0.527344,-0.24609375 -1.230469,-0.8671875 v 2.5078125 q 0,0.65625 0.257813,1.078125 0.128906,0.1992188 0.445312,0.4921875 0.105469,0.09375 0.105469,0.1640625 0,0.082031 -0.175781,0.1523438 -0.164063,0.070312 -0.375,0.1523437 -0.363282,0.1640625 -0.84375,0.46875 -0.328125,0.1992187 -0.621094,0.4335937 -0.28125,0.234375 -0.574219,0.4804688 -0.09375,0.046875 -0.164062,0.046875 -0.117188,0 -0.09375,-0.234375 0.234375,-0.6210938 0.386718,-1.2539062 0.152344,-0.6210938 0.152344,-1.2773438 v -10.5 q 0,-1.0078125 -0.621094,-1.640625 -0.257812,-0.2695313 -0.902343,-0.6093755 -0.07031,-0.03516 -0.07031,-0.09375 0,-0.03516 0.02344,-0.08203 0.02344,-0.04687 0.04687,-0.08203 0.05859,-0.07031 0.199218,-0.1875 0.199219,-0.164063 0.316407,-0.28125 0.175781,-0.175781 0.269531,-0.28125 0.09375,-0.105469 0.175781,-0.210938 0.03516,-0.05859 0.128906,-0.05859 0.07031,0 0.105469,0.03516 0.480469,0.363281 0.9375,0.9375 0.679688,0.8554687 0.796875,1.6640625 0.457031,-0.9023438 1.253906,-1.5937505 1.171875,-1.007812 2.613282,-1.007812 1.453125,0 2.566406,0.855469 0.925781,0.714843 1.488281,1.910156 0.492188,1.0546875 0.492188,1.9453125 z m -1.570313,0.84375 q 0,-1.6875 -0.9375,-2.9648438 -0.984375,-1.3476567 -2.4375,-1.3476567 -1.207031,0 -2.121094,0.7617192 -0.75,0.6210938 -1.253906,1.6992188 v 6.8203125 L 41.531063,-1.5 q 0.199219,-0.1875 0.316406,-0.328125 0.128907,-0.140625 0.292969,-0.3984375 0.05859,-0.070312 0.117188,-0.070312 0.152343,0 0.09375,0.1875 -0.01172,0.023437 -0.04687,0.234375 -0.03516,0.1992188 -0.03516,0.328125 0,0.28125 0.105469,0.515625 0.152344,0.3046875 0.585938,0.515625 0.445312,0.2109375 0.914062,0.2109375 1.78125,0 2.859375,-1.5820312 1.078125,-1.5820313 1.078125,-4.1367188 z"
           id="HotelApp"
           style="font-size:24px;font-family:Harrington"
           transform="translate(161,49)"
           aria-label="HotelApp" /><path
           id="Path_1003"
           data-name="Path 1003"
           d="m 5,3 v 32.944 h 9.4 v -6.406 h 3.134 v 6.406 h 9.4 V 3 H 5 m 3.134,3.66 h 3.134 v 3.66 H 8.134 V 6.66 m 6.269,0 h 3.134 v 3.66 H 14.4 V 6.66 m 6.269,0 h 3.134 v 3.66 H 20.671 V 6.66 M 8.134,13.981 h 3.134 v 3.66 H 8.134 v -3.66 m 6.269,0 h 3.134 v 3.66 H 14.4 v -3.66 m 6.269,0 h 3.134 v 3.66 h -3.132 v -3.66 M 8.134,21.3 h 3.134 v 3.66 H 8.134 V 21.3 m 6.269,0 h 3.134 v 3.66 H 14.4 V 21.3 m 6.269,0 h 3.134 v 3.66 H 20.671 V 21.3 M 8.134,28.623 h 3.134 v 3.66 H 8.134 v -3.66 m 12.537,0 h 3.134 v 3.66 h -3.134 z"
           transform="translate(66.935,14)" /></g></g></g></svg>
