<svg xmlns="http://www.w3.org/2000/svg" width="140.065" height="32.944" viewBox="0 0 140.065 32.944">
  <g id="Group_83" data-name="Group 83" transform="translate(-71.935 -17)">
    <text id="HotelApp" transform="translate(161 42)" font-size="24" font-family="Harrington"><tspan x="-50.508" y="0">HotelApp</tspan></text>
    <path id="Path_1003" data-name="Path 1003" d="M5,3V35.944h9.4V29.538h3.134v6.406h9.4V3H5M8.134,6.66h3.134v3.66H8.134V6.66m6.269,0h3.134v3.66H14.4V6.66m6.269,0h3.134v3.66H20.671V6.66M8.134,13.981h3.134v3.66H8.134v-3.66m6.269,0h3.134v3.66H14.4v-3.66m6.269,0h3.134v3.66H20.671v-3.66M8.134,21.3h3.134v3.66H8.134V21.3m6.269,0h3.134v3.66H14.4V21.3m6.269,0h3.134v3.66H20.671V21.3M8.134,28.623h3.134v3.66H8.134v-3.66m12.537,0h3.134v3.66H20.671Z" transform="translate(66.935 14)"/>
  </g>
</svg>
